<svg xmlns="http://www.w3.org/2000/svg" viewBox="0 0 80.68 50.72"><g id="Layer_2" data-name="Layer 2"><g id="Main"><path d="M32.57,22.7c.83.36,1.66.68,2.46,1.09A11.38,11.38,0,0,1,41.4,32.9,16.44,16.44,0,0,1,41,39.45a11.57,11.57,0,0,1-5.05,6.94,20.2,20.2,0,0,1-9.5,3.24c-.89.08-1.79.11-2.69.11H0V0L.3,0C8.49,0,16.67,0,24.86,0a20.24,20.24,0,0,1,9.32,2.28,8.28,8.28,0,0,1,4,4.6,14.5,14.5,0,0,1,.43,9.18,9.5,9.5,0,0,1-4,5.38C34,21.92,33.29,22.28,32.57,22.7ZM10.91,27.59V41.35h.28c4,0,8,0,12,0a10.71,10.71,0,0,0,4-.83,5,5,0,0,0,3-3.06A8.45,8.45,0,0,0,30.23,32a5.69,5.69,0,0,0-3-3.67,8.08,8.08,0,0,0-3.52-.75c-4.08,0-8.17,0-12.25,0Zm0-7.43.35,0H21.94a8.59,8.59,0,0,0,3-.44A4.75,4.75,0,0,0,28.08,17a7.68,7.68,0,0,0,.19-4.9,3.8,3.8,0,0,0-1.48-2.13A8.39,8.39,0,0,0,22,8.54H10.91Z"/><path d="M80.52,34.07h-26c.12.91.18,1.79.34,2.64a8.09,8.09,0,0,0,1.47,3.51A7.57,7.57,0,0,0,61,43a10,10,0,0,0,5.79-.32,7.19,7.19,0,0,0,4-3.07A1.2,1.2,0,0,0,71,39.3c.14-.62.51-.77,1.13-.76,2.44.05,4.87,0,7.31,0H80c-.2.58-.36,1.12-.57,1.63a18.06,18.06,0,0,1-4,6.15,14.58,14.58,0,0,1-5.86,3.47,21.32,21.32,0,0,1-9.19.7,18,18,0,0,1-7.78-2.74,16.72,16.72,0,0,1-4.85-4.92,19.17,19.17,0,0,1-2.83-9.46,22.84,22.84,0,0,1,.91-8A17.24,17.24,0,0,1,60.56,13a19.46,19.46,0,0,1,9,.94,14.23,14.23,0,0,1,6.13,4,19.32,19.32,0,0,1,4.59,9.66,22.68,22.68,0,0,1,.34,5.87C80.59,33.66,80.55,33.84,80.52,34.07Zm-9.78-6.18A9.63,9.63,0,0,0,70,24.44a6.29,6.29,0,0,0-3-3.32,9.19,9.19,0,0,0-6.23-.67,7.63,7.63,0,0,0-3.42,1.65,8.15,8.15,0,0,0-2.48,4.65c-.07.37-.12.74-.18,1.14Z"/><path d="M72.82,2.7V7.54H52.71V2.7Z"/></g></g></svg>