<svg xmlns="http://www.w3.org/2000/svg" viewBox="0 0 59.27 59.28"><g id="Layer_2" data-name="Layer 2"><g id="Main"><path d="M29.13,0A29.64,29.64,0,1,1,0,31.08,29.61,29.61,0,0,1,29.13,0ZM39.59,53c-.7-4.55-4.48-17.76-5.47-19.13a49.8,49.8,0,0,0-6.57,2.89,36.69,36.69,0,0,0-11,9.1,19.48,19.48,0,0,0-2.43,3.78A24.66,24.66,0,0,0,39.59,53ZM32.44,29.67c-.64-1.35-1.26-2.64-1.85-3.93-.16-.34-.32-.39-.67-.3-2.33.56-4.65,1.13-7,1.64A89.71,89.71,0,0,1,4.59,28.92l-.28,0c-.79,4.83,3,15.09,6.57,17.68a39.54,39.54,0,0,1,9.23-10.44A34.74,34.74,0,0,1,32.44,29.67ZM4.81,24.53a93.06,93.06,0,0,0,23.4-3.15A136,136,0,0,0,18.86,6.74C11.43,10.51,6.65,16.29,4.81,24.53ZM33.13,19.8c4.64-1.3,12.21-6.48,13.25-9.06C40.17,4.84,30.32,3.13,23.78,5c1.6,2.41,3.27,4.8,4.82,7.26S31.62,17.29,33.13,19.8Zm2,3.83c.7,1.66,1.37,3.26,2.07,4.84a.57.57,0,0,0,.44.22c1.41-.09,2.81-.21,4.22-.3a46.63,46.63,0,0,1,8.68.38c1.47.18,2.94.39,4.41.59.61-4-2.64-12.94-5.68-15.7C45.49,18.29,40.55,21.27,35.13,23.63Zm3.7,9a105.83,105.83,0,0,1,5,18.07c5.92-4.28,9.69-9.82,10.91-17.05A37.58,37.58,0,0,0,38.83,32.67Z"/></g></g></svg>