<svg xmlns="http://www.w3.org/2000/svg" viewBox="0 0 48.51 48.5"><g id="Layer_2" data-name="Layer 2"><g id="Main"><path d="M24.26,11.82A12.44,12.44,0,1,0,36.7,24.25,12.41,12.41,0,0,0,24.26,11.82Zm0,20.52a8.09,8.09,0,1,1,8.09-8.09,8.1,8.1,0,0,1-8.09,8.09Zm15.85-21a2.9,2.9,0,1,1-2.9-2.9A2.9,2.9,0,0,1,40.11,11.31Zm8.23,2.94c-.18-3.88-1.07-7.33-3.91-10.16S38.15.37,34.26.17s-16-.23-20,0S6.93,1.24,4.09,4.08.37,10.35.17,14.24s-.23,16,0,20,1.07,7.33,3.92,10.17,6.28,3.72,10.16,3.91,16,.23,20,0,7.33-1.07,10.17-3.91,3.72-6.28,3.91-10.17.23-16,0-20Zm-5.17,24.3a8.2,8.2,0,0,1-4.61,4.61c-3.19,1.27-10.77,1-14.3,1s-11.11.29-14.29-1a8.18,8.18,0,0,1-4.62-4.61c-1.26-3.19-1-10.77-1-14.3S4.1,13.14,5.35,10A8.21,8.21,0,0,1,10,5.34c3.19-1.26,10.76-1,14.29-1s11.12-.28,14.3,1A8.2,8.2,0,0,1,43.17,10c1.27,3.2,1,10.77,1,14.3S44.44,35.37,43.17,38.55Z"/></g></g></svg>