<svg xmlns="http://www.w3.org/2000/svg" viewBox="0 0 122.56 100.77"><g id="Layer_2" data-name="Layer 2"><g id="Main"><path d="M61.19,56.94h-54a6.88,6.88,0,0,1-5.44-2.06A6.37,6.37,0,0,1,.27,48.62a6,6,0,0,1,4.81-4.57,10.55,10.55,0,0,1,2.31-.25H115.17a7,7,0,0,1,5.66,2.15,6.37,6.37,0,0,1,1.44,6.28,6.11,6.11,0,0,1-4.87,4.51,10.4,10.4,0,0,1-2.23.2Z"/><path d="M61.28,0H115.4a6.87,6.87,0,0,1,5.31,2,6.38,6.38,0,0,1,1.56,6.4A6.11,6.11,0,0,1,117.18,13a11.17,11.17,0,0,1-2.24.19H7.36A7,7,0,0,1,1.71,11,6.38,6.38,0,0,1,.32,4.64,6.09,6.09,0,0,1,5.42.18,13.77,13.77,0,0,1,7.82,0Z"/><path d="M61.3,87.6h54.13a6.85,6.85,0,0,1,5.24,2,6.4,6.4,0,0,1,1.62,6.39,6.12,6.12,0,0,1-5.05,4.62,11.18,11.18,0,0,1-2.24.2H7.34a7,7,0,0,1-5.59-2.12A6.35,6.35,0,0,1,.31,92.29a6,6,0,0,1,5.13-4.51,13.82,13.82,0,0,1,2.41-.18Z"/></g></g></svg>