<svg xmlns="http://www.w3.org/2000/svg" viewBox="0 0 35.28 65.74"><g id="Layer_2" data-name="Layer 2"><g id="Main"><path d="M26.77,32.66l-5.35-5.52q-10-10.28-20-20.54A4.1,4.1,0,0,1,.05,3.29,3.41,3.41,0,0,1,2.56.2,3.56,3.56,0,0,1,6.48,1.31C9.1,4,11.7,6.77,14.31,9.51Q24.14,19.81,34,30.13c1.39,1.47,1.67,2.7.93,4.25a5.09,5.09,0,0,1-1,1.32Q20.21,50.07,6.45,64.41a3.68,3.68,0,0,1-5.23.43,3.38,3.38,0,0,1-.67-4.45,6,6,0,0,1,.81-1.07q12.42-13,24.86-26.06C26.39,33.09,26.55,32.9,26.77,32.66Z"/></g></g></svg>