<svg xmlns="http://www.w3.org/2000/svg" viewBox="0 0 50.36 50.33"><g id="Layer_2" data-name="Layer 2"><g id="Main"><path d="M32,37.41a20.72,20.72,0,0,1-17.63,2.53A19.63,19.63,0,0,1,3,31,20.38,20.38,0,0,1,32.36,3.87a20.26,20.26,0,0,1,8.2,13,21,21,0,0,1-3.13,15.09,2.78,2.78,0,0,1,.34.26L49,43.49a3.8,3.8,0,0,1,1.08,4.23,3.84,3.84,0,0,1-6,1.76,7.85,7.85,0,0,1-.74-.67l-11.07-11A3.79,3.79,0,0,1,32,37.41Zm-24.22-17A12.7,12.7,0,0,0,20.37,33a12.61,12.61,0,0,0,0-25.21A12.67,12.67,0,0,0,7.74,20.44Z"/></g></g></svg>