<svg xmlns="http://www.w3.org/2000/svg" viewBox="0 0 387.38 619.66"><defs><style>.cls-1{fill:#fff;}</style></defs><g id="Layer_2" data-name="Layer 2"><g id="Main"><path id="path3652" class="cls-1" d="M2.23,489.41c2.7-4,2.9-8.89-1.06-12.21a12.11,12.11,0,0,0,1.06,12.21"/><path id="path3654" class="cls-1" d="M10.81,454c-2.17,3.58-1.63,7.8-2.71,11.68,10.82-12.42,25.67-16.08,35.35-30.22,3.61-5.25,33.35-23.11,23.24-32.2,6.11,1.76,2-2.64,2.57-6.37.63-4.53,8-4.88,11.18-5.19,5.47-.51,6.61-2.59,7.71-7.56,1.52-6.92,6.5-5,11.14-7.78,9.76-5.84,3-12.19-.73-19.49-4.47-8.77,3.73-20.21-3.18-27.8-4.78,3.85.28,19.43-6.2,13.07,1.53,3.24,5.61,12.3,5.84,15.81-3.81-2.32-8.23-4.84-9.51-9.49-.27,4.81,2.09,8.77,3.39,13.21s-4.77,17.9-6.85,8.34c-.48,2.92-2.11,3.83-4.79,4.46-2.07.48-1.18,6.4-1.8,7.83-.78,1.81-4.42-.71-5.32.94-1.43,2.63,2,4.62-.28,7.59-.66-9-4.84,1.22-6.27,3.58-2.37,3.93-4.64,7.93-7.87,11.25-5.12,5.26-8,12.59-13.88,17.12-2.36,1.81-4.93.83-7.28,2.45-2.69,1.84-3,5.26-5.72,6.74-7.83,4.2-14.77,13.82-18,22"/><path id="path3660" class="cls-1" d="M89.93,112.17c-2,8.33,4.76,7.52,5.42,12.32,1,7.34,1.21,16.74,4.63,23.3a51.42,51.42,0,0,1,5.76,18.79c.51,4.21,6.87,13.71,6.31,4.21,7,2.93,2.39,16.56,10.5,19.32,12,4.09,3-11.8,3.45-16.89,3,1.24,27.77,10.41,17.79,17a110.11,110.11,0,0,0-10.7,8.58c-5.57,4.74-.45,14.73-.14,21.1,3.24-.27,4.58-2.14,3.26-5.21,6.83.37,9.81,4.28,8.34,11,2.52-7.8,7.22-.69,5.58,3.25,3.92-.49,9.56,2.13,12.9-1,2.85-2.65,3.77-6.82,7-9.07,1-.69,6.87-4.86,8.22-3.69,4.62,4,10.91,6.13,15.13,10.47,5.59,5.73,16.34,13.68,17.62,21.91.42,2.76,5.08,6.93,6.35,2.17a14.67,14.67,0,0,0-1.84-7.35c-.48-1.29-5.84-9.15-2.86-8.07-5.92-4-4-12.15-8.1-17.41,8.25-1,15.56,9.18,19.29,15,5,7.83,14.13,8.63,18.34,18.2,1.11,2.51-1.84,7.18,1.73,8.09,3.88,1,7.06,3.89,10.57,5.75,2.81,1.48,5.15,5.55,8.48,3.95,2.43-1.16,6.09-4.65,9-3.92-.79,4.64-9.44,6.4-5.92,12,.64,1,7.34,11.45,9.41,6.5,3.22-7.69,1.09-34.87-13.89-25.31-1.52-3.27.26-5.35-.39-8.52-.82-4-6.33-9.93-9.66-12-8.83-5.54,10.41-9.9,15.26-7-.65-5.62-9.61-8.21-14.16-8.8-7.76-1-8.81-7.65-15.21-9-1.82,5.22,7.77,13.29-.6,15.94-6.13,1.95-7.36-12.64-9.87-17.27-5.08-9.43-27.61-18.54-27.81-1.26-.87-1.61-1.81-3.16-2.83-4.67-5.31,4.55,5,7.92,1.95,11.14-5.16,5.44-15-2.6-18.5-6.44-3.11-3.45-16.15-27.76-5.81-28-9.11-6.88-18.08-26-13.4-36.62,3.2-7.24-.27-14.07,2.63-20.43,3.58-7.88,14.31-8,20-13.69q-1.07,3.19-2.14,6.38c4.76-5,3.55-11.18,5.9-17.26,3.6-9.26,8.29-19.17,6.9-29.39-5.37,2.29-2.69-4.91-4.31-7.4-4.49-6.88-10-7.3-12.54-16.63-2.61-9.58-2.1-16.9,2.19-25.65,2.22-4.53-3.28-17.41-7.69-10.83-1.75,2.61-2.27,8.49-6.77,7.5-2.72-.61-8.53-4-11.08-1-1.34-3.23-4.31-5.58-7.1-7.46-5.61-3.78-12.88-9.4-19.78-7.4-3,.86-6.11-.86-9-1.23C115-.33,117,3.69,114.38,3.6c-7.3-.28-2.85,3.93-3.16,8.24-.56,7.71-3.33,17.12-4.75,24.91-2.58,14.18,7.71,27.19,4.17,42.24-2.87,12.2,1.85,21.57,3.07,33.08,1.52,14.27-19.38-5.48-20.69-11.58-4.87,2.22-4.61,7.41-3.09,11.68"/><path id="path3664" class="cls-1" d="M108.65,330q1.88-6-4.08-2.43l4.08,2.43"/><path id="path3666" class="cls-1" d="M112.81,289.82a21.08,21.08,0,0,0-3.68-3.18c-7.17,12.41,9.32,15.19,18.05,15.52a7.4,7.4,0,0,0-3-6.77c-4.23-2.57-7-1.62-11.4-5.57"/><path id="path3668" class="cls-1" d="M111.38,217.53c1.35,3.73,5,6.12,8.08,8.29.36-4.68-3.75-7.94-8.08-8.29"/><path id="path3670" class="cls-1" d="M113.77,305.07l-5,.95c.73,4.74,6.36,5.34,5.73,10.48,3.56-3,.25-8.26-.73-11.43"/><path id="path3672" class="cls-1" d="M117.44,368.32c-.26-6.66-9.11-.84-9.21,3.45,5,2.24,4.37-4.33,9.21-3.45"/><path id="path3676" class="cls-1" d="M121.74,235.42c.73,2.21,8.89,9.27,10.83,10.92,8.25,7,5.83,15.71,11.74,23,2.6,3.2,19.67,37.38,24.49,18,1-4.1,3.69-7.5,4.65-11.61s-2.77-7.87-2.62-12c.37-9.8-4.34-16.09-10.72-23-5.15-5.56-33-11.8-38.37-5.41"/><path id="path3684" class="cls-1" d="M118.59,619.66c2.42-1.25,16.47-8.18,15.89-9.91-2.11-6.42-6.33-.63-9.63,1.54-4.06,2.68-10.56,2.55-6.26,8.37"/><path id="path3692" class="cls-1" d="M175.77,584.94c10.6-4.79-5.46-10.44-10.48-9.71-5.46.81-5,7.73-3.69,7.09,3.6-1.76,12.76-2.3,14.17,2.62"/><path id="path3694" class="cls-1" d="M176,167.14c1.06,4.71,3.15,13.74,8.16,15.89,2.45-5.61,1.53-23.86-8.16-15.89"/><path id="path3696" class="cls-1" d="M194.07,213.44c-1-4.66-7-8.1-11-9.54,2.44,4.42,7,6.81,11,9.54"/><path id="path3698" class="cls-1" d="M181.72,238.45c-.47,8.51,12.55,15.4,13.39,3.24.42-6.2-11.15-10-13.39-3.24"/><path id="path3702" class="cls-1" d="M188.68,315.13c12.24,2.65,8.92,12.1,8.33,21.53-.43,6.84.51,11.75-1.59,18.53-2.19,7.07,1.71,14-1.08,21,7,1.77,12-10.19,19.69-9.9,5,.19,14.63-6.77,13.37-11.81-1.11-4.41,15-5.44,13-11.74-2.56-8.36,3.75-19.51-9.85-10.41,3.38-3.43-1.32-8.42-5.24-7.7-3.63.66-6.15,5.11-9.12,1.71-3.35-3.84-5.68-8.18-10.4-10.63-4.44-2.29-10.24-3.41-13.06-8a14.92,14.92,0,0,0-4.09,7.45"/><path id="path3704" class="cls-1" d="M193,281.83c-.78,6.84-3.82,12.56,1.2,18.67,1.22-7.77,2.14-15.56,4.06-23.13,1.08-4.28-8.75-1.92-5.26,4.46"/><path id="path3710" class="cls-1" d="M198.63,554.26c.57,4.61,4.84,7.36,9.22,5.55s4.35-6.61,7.26-9.87c-3.92.18-6.16-2.94-9.73-3.79s-6.64,3.58-10,4.18a23.76,23.76,0,0,0,3.28,3.93"/><path id="path3714" class="cls-1" d="M199.68,526.54c-2.36,10.66,12.19,15.74,13.78,3.24.58-4.55,3-17.1,6.58-18.36,2.82-1,5.44-17.56,11.59-12.42,4.42,3.69,2.27,11.19,5.74,15.28,1.25-6.64,3.53-3.3,5.32.21,1.65-4.07.62-9.81,5.78-11.57,2.17,2.83,1.61,6.12-1.11,8.32,5.22.39,8.26,7,13.5,6.22-1.5-2.36-3.35-5.56-3.11-8.49.13-1.66,3.79-1.33,4.28-2.88,1.3-4.06-3.29-3.27,2.15-7.06,3.35-2.32,6.4,2.1,8.8,3.74,8.18,5.57,15.69,7.31,18.08,18.52,1.29,6.09-7.1,11.43-8,17.86s2.24,15.44,3.37,21.86c1.73,9.9,10.05,16.12,18.29,20.74,3.78,2.13,17.13,11.54,21.43,8,3.45-2.81,1.94-9.82,8.23-9.25.62.05-2.34,29.27,6.85,23.43,6.39-4.06,12.36-18.6,11.67-25.83-1-10.17-8.5-14.7-12.11-23-2.18-5,10.85-32.16,15.05-30,3.22,1.7,9.9,17.6,11.19,21.45s.32,7.59.5,11.43c.26,5.61,4.65,9.51,5.26,15,.34-8.81,4.72-20.09-1.64-27.81,3.33-1.41,5.92.65,7.09,3.69-5.45-5.22,3.1-9.93,6-13.58,5.59-7,2.25-17.78,1.12-25.59-.93-6.42-9.28-6.76-5.7-13.55,2.08-3.94,2.62-14.25-4.69-11.27,12.61-10-9.62-14.27-9.13-19.74.29-3.2,6.58-4.46,7.93-7.56,2.4-5.55-3.79-8.05-5.27-12.49-.7-2.09,2-11.85-1.93-10-4.92,2.3-5.74.51-8.2-3.32-2.92-4.54.29-7-6.38-9.28-7.35-2.56-8.44-9.32-14.84-12.4-4.25,8.42,2.23,20,4.51,28.14.52,1.88,3,8.8-.45,9.65-4.44,1.1-10.44-.21-12.17-5-4,11-.2,12.09-10.41,4.41-9.61-7.23-2.06,20.13-10.27,21-5.28.52-6.06-5.85-11-3.86-5.12,2.08-4.08,11.37-5.83,15.62-2.1,5.11-9.56,2.51-13.44,5.43-2.25,1.69-6.17,5.75-9.18,5.77s4-4.68,3.39-4.29c4-2.46,4.91-3.89,4.1-8.91-.62-3.9-5.22-22.73-12-14-.87-3.15-2.63-7.16-6.6-7.1,1.82,10.53-11.09,6-14.37,11.58-3.88,6.56-1,12.84-9.46,15.27s-20.93-.44-25.32,10.11c-1.89,4.52-1,9.88-1.73,14.63-.92,6.28-4.44,12.45-7.25,18"/><path id="path3716" class="cls-1" d="M213.46,282.61a21.59,21.59,0,0,0-3.91,2.89,111.66,111.66,0,0,1,9.19,8.34c3.75-4.85.84-11-5.28-11.23"/><path id="path3718" class="cls-1" d="M223.71,423.28c3.52,2.74,8.71,2.86,11.58,6.52,2.43,3.09.91,7.8,3.84,10.61,4,3.88,9.7-.35,11.93-4,4.14-6.73-2.82-11.69-4.43-17.77-3-11.2,1.93-27.33,5.81-38,2.95-8.12,12.08-18.82.91-25.26-3.68-2.13-8.53-2.94-12.57-1.3-6.92,2.83-4.3,8.88-6.23,14.44-1.25,3.58-4.85,4.62-3.7,9,1.29,4.85,3.16,10.17,1,15.12-3.18,7.47-16.94,2.1-17.06,10.56-.09,7.08,5.16,14.39,8.88,20.06"/><path id="path3720" class="cls-1" d="M219.7,378.65c3.45-1.41,11.86-11.6,4.72-13.64-5.4-1.54-7.26,10.72-4.72,13.64"/><path id="path3722" class="cls-1" d="M246.43,275.12c-4.09-7.24-8.76-17-16.69-20.79-4.22,6.53,13.85,16.31,16.69,20.79"/><path id="path3724" class="cls-1" d="M241.07,306.47c-.17,1.38-.35,2.77-.52,4.15,5.48-3.45,10-17.67,16.19-9.92,2.5,3.15,5.27,6.09,7.47,9.46,2.79,4.27,8.85,4.72,11.76,9,6.28-11.09-8.89-18.56-13.86-24.95a67.88,67.88,0,0,0-8.37-8.33c-1.58-1.39-10.45-6-12.4-6.05,1.26,3.68-.25,13.22,1.26,15.41,3.72,5.41-.93,5.51-1.53,11.2"/><path id="path3726" class="cls-1" d="M236.7,522.24c14.25-5-11-9.45,0,0"/><path id="path3728" class="cls-1" d="M259,284.34a23.68,23.68,0,0,0,5.42,7.43c-.57-5.16-1.75-11.49-6.69-14.33a5.47,5.47,0,0,0,1.27,6.9"/><path id="path3730" class="cls-1" d="M255.48,398.64c.25,8-2.51,15.62-3.58,23.43,10.76,3.28,9.43-22.62,14-27.57,5.67-6.14,11.61-11.06,12.89-19.85,1.52-10.47-1.44-20.94-.73-31.42-5.29.88-7.4,17.28-8.45,21.25-3.17,12-11.18,22.09-14.14,34.16"/><path id="path3734" class="cls-1" d="M264.14,440.4c6.57-.09,4-6.19,1.52-9.44-3.77,1.68-6.26,7.06-1.52,9.44"/><path id="path3736" class="cls-1" d="M277.12,238.64c9.79-6.34,9-21.48-3.67-24.47-4,7.65-1.94,18.9,3.67,24.47"/><path id="path3740" class="cls-1" d="M270.25,420.11q5.42-.14,3.94-3.66c-2.95-.35-4,.83-3.94,3.66"/><path id="path3742" class="cls-1" d="M273.93,412.26c-1.42,14.75,25.59-1.05,28.92.33-1.8-7.69-1.51-22.71-15.29-19.5-4.84,1.13-20.06,14.72-13.63,19.17"/><path id="path3746" class="cls-1" d="M283.7,285.27c2.69,8.19,5.89,15.23,12.51,21,3.69,3.22,14.85,16,19.64,14.06-1.75,3.7-1.76,8.69-6.51,10a23.65,23.65,0,0,1,5.44,7.05c-3.88-4.6-6.44,1-9.82,2.76-5.23,2.78-12.94-5.77-15-9.78-4,4.54,2.37,27.3,8,30-.62-10.24,10.86,3.38,10.94,8.58.2,13.28-2.6,23.38,11.19,30.27-.45-4-2.37-7.75-2.24-11.86,2.13,2.55,9.85,3.05,10.76-1.13.5-2.32-4.77-13.55-6.1-16-3-5.55-4-4.88-4.29-12.17-.17-4.72,1.14-12.08-2.84-15.69,3.18-.7,11.77,8.33,11.86,8.24,3.63-3.95,16.51,1.75,20,4-2.75-3.48-4.56-8.29-9.13-9.85,6.15-4.35-5.32-18.28-5.65-23.73-.37-5.74,2.4-10.73-.55-15.72-1.89-3.19,5.62-2-.3-5.87-3.21-2.1-7.46-.8-7-6,.64-6.64-5.13-7.09-9.85-8.32-5.11-1.32-6.76-1.47-12.25.07-6.31,1.76-13-4-18.84.06"/><path id="path3748" class="cls-1" d="M295.19,333.23c6.67,1.23,2.35-14.58-6.07-10.12,1.66,3.52,2.49,7.89,6.07,10.12"/><path id="path3752" class="cls-1" d="M311.94,443c1.95-3.89-1.16-10.17-5.83-6.3a8.71,8.71,0,0,0,5.83,6.3"/><path id="path3754" class="cls-1" d="M312.28,283.31c1,1,1.77.88,2.29-.29l-2.29.29"/><path id="path3756" class="cls-1" d="M327.19,401.35q2.07,1.93,4.08,4c-.64-3.63-2.16-9.72-7.29-8.26a28.63,28.63,0,0,0,3.21,4.3"/><path id="path3758" class="cls-1" d="M342.38,401.93c2.95,2.22,3.21,5.45.49,8,5.62,1.05,4.63-7.07,4.08-10.21-.58-3.29-2.55-6.24-3-9.52-.39-3,1.69-5.29.68-8.34-7.6,2.92-1.86,9.5-6.24,14.22,3,.6,4.95,2.67,4,5.85"/><path id="path3762" class="cls-1" d="M354.87,544.59c1.35-4.05.37-8.14-.32-12.18-6.63,1.07-1.18,7.84.32,12.18"/><path id="path3764" class="cls-1" d="M358,422.67c2.71-2.6,1-6.27-1.59-8.05a10.6,10.6,0,0,0,1.59,8.05"/><path id="path3766" class="cls-1" d="M361,402.63c-2,2.48-4.05,13.17,2.05,12s2-11.09-2.05-12"/><path id="path3776" class="cls-1" d="M314.78,337.39a10.27,10.27,0,0,1,.6,5,8.39,8.39,0,0,1-.6-5"/><path id="path3788" class="cls-1" d="M260.64,351.69c-2.23-14.94,17.66-6.55,0,0"/></g></g></svg>